<?xml version="1.0" encoding="utf-8"?>
<!-- Generator: Adobe Illustrator 23.0.4, SVG Export Plug-In . SVG Version: 6.00 Build 0)  -->
<svg version="1.1" id="Layer_1" xmlns="http://www.w3.org/2000/svg" xmlns:xlink="http://www.w3.org/1999/xlink" x="0px" y="0px"
	 viewBox="0 0 800 800" style="enable-background:new 0 0 800 800;" xml:space="preserve">
<style type="text/css">
	.st0{fill:#FFFFFF;}
</style>
<path d="M52.01,337.06c0-10.95-0.31-20.65,0.06-30.33c1.19-30.86,8.79-37.57,40.96-41.2c7.18-0.81,16.72-6.39,19.81-12.34
	c15.07-28.99,39.99-38.85,71.94-40.54c45-2.37,89.93-6.4,134.8-10.6c11.75-1.1,23.43-4.74,34.7-8.45
	c44.29-14.59,50.82-26.97,35.72-71.33c34-11.45,68.19-10.1,101.85-1.58c67.59,17.12,109.55,62.76,138.1,120.87
	c8.31,16.91,16.28,26.84,37.96,25c23.84-2.03,35.12,11.76,34.9,34.38c-0.12,12.27-0.02,24.54-0.02,36.43
	c36.89,7.26,42.24,13.14,41.49,48.1c-1.85,86.47-22.49,167.78-73.96,240.23c-40.95,57.65-93.38,91.47-170.82,88.05
	c-85.58-3.78-171.53-2.36-257.24-0.34c-56.7,1.34-100.28-20.81-134.99-60.45c-70.97-81.04-96.47-177.07-95.58-280.8
	C11.86,350.92,20.08,344.76,52.01,337.06z M682.37,343.48c7.25-60.59,7.21-60.64-47.5-60.64c-171.69,0-343.37,0-515.06,0
	c-51.38,0-51.39,0-47.94,50.25c0.11,1.58,1.25,3.09,2.41,5.79c28.14,1.29,56.87,2.61,85.59,3.93c-0.02,3.59-0.03,7.19-0.05,10.78
	c-8.14,1.19-16.26,3.27-24.42,3.4c-27.68,0.44-55.39,0.52-83.07,0.07c-14.76-0.24-22.51,4.95-22.44,19.91
	c0.5,99.21,24.36,191.23,93.38,268.12c30.79,34.3,70,52.3,119.28,51.43c90.43-1.59,180.92-1.31,271.36-0.1
	c46.81,0.62,84.2-15.91,114.93-48.37c69.48-73.38,92.65-162.56,97.39-258.64c1.29-26.19-8.16-32.96-34.43-32.75
	c-138.45,1.07-276.91,0.58-415.37,0.32c-9.65-0.02-19.3-2.52-28.95-3.86c0.24-3.22,0.48-6.44,0.73-9.66
	C392.57,343.48,536.9,343.48,682.37,343.48z M417.08,134.76c3.59,38.73-7,56.16-45.05,71.11c-13.53,5.31-27.84,10.41-42.21,11.9
	c-47.49,4.92-95.13,8.65-142.78,11.85c-33.56,2.25-48.96,11.51-53.87,34.96c161.56,0,323.17,0,485.22,0
	C591.72,175.7,508.7,122.65,417.08,134.76z"/>
<path class="st0" d="M682.37,343.48c-145.47,0-289.81,0-434.14,0c-0.24,3.22-0.48,6.44-0.73,9.66c9.65,1.34,19.3,3.84,28.95,3.86
	c138.46,0.25,276.92,0.74,415.37-0.32c26.27-0.2,35.72,6.57,34.43,32.75c-4.75,96.07-27.92,185.25-97.39,258.64
	c-30.73,32.46-68.12,48.99-114.93,48.37c-90.44-1.21-180.93-1.49-271.36,0.1c-49.28,0.87-88.49-17.14-119.28-51.43
	C54.26,568.22,30.41,476.2,29.9,376.99c-0.08-14.95,7.68-20.15,22.44-19.91c27.68,0.45,55.39,0.37,83.07-0.07
	c8.16-0.13,16.28-2.21,24.42-3.4c0.02-3.59,0.03-7.19,0.05-10.78c-28.73-1.32-57.45-2.64-85.59-3.93c-1.16-2.7-2.3-4.21-2.41-5.79
	c-3.45-50.24-3.43-50.25,47.94-50.25c171.69,0,343.37,0,515.06,0C689.58,282.85,689.62,282.89,682.37,343.48z"/>
</svg>
