<?xml version="1.0" encoding="utf-8"?>
<!-- Generator: Adobe Illustrator 24.1.0, SVG Export Plug-In . SVG Version: 6.00 Build 0)  -->
<svg version="1.1" id="Layer_1" xmlns="http://www.w3.org/2000/svg" xmlns:xlink="http://www.w3.org/1999/xlink" x="0px" y="0px"
	 viewBox="0 0 640 480" style="enable-background:new 0 0 640 480;" xml:space="preserve">
<style type="text/css">
	.st0{fill:none;stroke:#FFFFFF;stroke-miterlimit:10;}
	.st1{fill:#FFFFFF;}
	.st2{fill:none;}
	.st3{font-family:'PTSans-NarrowBold';}
	.st4{font-size:28.2803px;}
	.st5{letter-spacing:5.45;}
</style>
<g>
	<g>
		<g>
			<path class="st0" d="M44.86,90.67c53.5-21.9,283.52-102.51,552.32,3.59l-24.7,71.69c-256.4-84.32-417.87-28.03-501.68-0.69
				L44.86,90.67z"/>
			<g>
				<path class="st0" d="M597.08,126.96l-18.18,52.76l-2.01-0.66c-10.13-3.33-20.23-6.45-30.29-9.41l-5.31,15.4l67.85,27.85
					l2.79-40.4l21.7-30.54L597.08,126.96z"/>
				<path class="st0" d="M64.38,179.64l-18.53-53.27L6.37,142.57l21.7,30.54l2.79,40.4l67.85-27.85l-5.32-15.42
					c-7.73,2.44-14.99,4.82-21.79,7.04L64.38,179.64z"/>
			</g>
		</g>
		<g>
			<path class="st1" d="M85.64,135.83c0.82,0.26,1.91,0.41,3.25,0.43c1.34,0.02,2.77-0.23,4.29-0.75c1.93-0.67,3.32-1.73,4.17-3.18
				c0.85-1.45,0.89-3.29,0.12-5.51c-0.51-1.47-1.29-2.63-2.36-3.48c-1.07-0.85-2.28-1.56-3.63-2.12c-1.35-0.56-2.78-1.08-4.27-1.56
				c-1.5-0.47-2.95-1.07-4.35-1.78c-1.41-0.71-2.69-1.65-3.86-2.8c-1.17-1.15-2.09-2.71-2.77-4.67c-1.09-3.16-1.03-5.8,0.19-7.93
				c1.21-2.12,3.22-3.67,6.01-4.64c1.72-0.6,3.32-0.96,4.78-1.08c1.46-0.13,2.7-0.07,3.71,0.17l0.05,4.15
				c-0.76-0.2-1.78-0.27-3.05-0.21c-1.27,0.06-2.67,0.35-4.19,0.88c-1.86,0.64-3.07,1.62-3.62,2.93c-0.55,1.31-0.57,2.71-0.05,4.22
				c0.46,1.32,1.2,2.36,2.24,3.14c1.04,0.78,2.23,1.44,3.58,1.98c1.35,0.55,2.77,1.07,4.28,1.58c1.51,0.51,2.98,1.15,4.4,1.92
				s2.73,1.75,3.91,2.94c1.18,1.19,2.11,2.77,2.79,4.72c1.14,3.31,1.14,6.22,0,8.72c-1.14,2.5-3.35,4.32-6.63,5.45
				c-2.07,0.72-3.84,1.1-5.31,1.14c-1.47,0.05-2.69-0.06-3.67-0.31L85.64,135.83z"/>
			<path class="st1" d="M112.06,110.93c-1.87-6.83-2.28-12.29-1.24-16.37c1.04-4.08,3.62-6.68,7.74-7.81
				c2.22-0.61,4.23-0.63,6.05-0.08c1.82,0.56,3.46,1.6,4.92,3.14c1.46,1.54,2.77,3.53,3.93,5.98c1.16,2.45,2.18,5.26,3.05,8.45
				c1.87,6.83,2.27,12.29,1.22,16.38c-1.06,4.09-3.65,6.69-7.77,7.82c-2.18,0.6-4.18,0.62-6,0.06c-1.82-0.56-3.46-1.6-4.94-3.13
				c-1.48-1.53-2.79-3.53-3.93-5.98C113.94,116.93,112.93,114.11,112.06,110.93z M116.23,109.79c0.62,2.27,1.36,4.37,2.21,6.33
				c0.86,1.95,1.81,3.61,2.86,4.97c1.05,1.36,2.22,2.36,3.49,3.01c1.27,0.64,2.63,0.77,4.07,0.37c2.64-0.72,4.27-2.65,4.89-5.79
				c0.62-3.14,0.14-7.57-1.42-13.29c-0.61-2.23-1.34-4.32-2.2-6.27c-0.86-1.95-1.81-3.62-2.87-5c-1.06-1.38-2.23-2.39-3.5-3.04
				c-1.27-0.64-2.65-0.76-4.13-0.36c-2.61,0.71-4.22,2.64-4.83,5.78C114.19,99.64,114.67,104.07,116.23,109.79z"/>
			<path class="st1" d="M165.37,76.43l3.86-0.81l5.73,27.41c1.03,4.95,0.9,8.71-0.41,11.28c-1.31,2.57-3.59,4.2-6.84,4.87
				c-3.79,0.79-6.77,0.3-8.95-1.48c-2.18-1.78-3.73-4.89-4.66-9.33l-5.92-28.34l4.02-0.84l5.44,26.06c0.44,2.1,0.93,3.85,1.49,5.24
				c0.55,1.39,1.21,2.47,1.97,3.25c0.76,0.78,1.61,1.27,2.55,1.48c0.94,0.21,2.03,0.19,3.28-0.08c2.36-0.49,3.81-1.73,4.34-3.71
				c0.54-1.98,0.39-4.96-0.44-8.94L165.37,76.43z"/>
			<path class="st1" d="M208.06,73.37l-9.31,1.43l5.74,37.23l-4.06,0.63l-5.74-37.23l-9.31,1.43l-0.63-4.07l22.67-3.49L208.06,73.37
				z"/>
			<path class="st1" d="M243.48,87.87l-14.05,1.43l1.95,19.19l-4.08,0.42l-4.22-41.58l4.08-0.42l1.86,18.29l14.05-1.43l-1.86-18.29
				l4.08-0.42l4.22,41.58l-4.08,0.42L243.48,87.87z"/>
			<path class="st1" d="M263.69,63.73l17-0.88l0.21,4.11L268,67.63l0.73,14.13l11.86-0.61l0.21,4.11l-11.86,0.61l0.79,15.26
				l13.18-0.68l0.21,4.11l-17.28,0.89L263.69,63.73z"/>
			<path class="st1" d="M298.47,62.75c1.2-0.32,2.52-0.56,3.97-0.71c1.44-0.15,2.76-0.22,3.97-0.23c1.42-0.01,2.77,0.18,4.05,0.55
				c1.28,0.37,2.4,1,3.35,1.89c0.95,0.89,1.71,2.06,2.29,3.51c0.57,1.45,0.86,3.27,0.87,5.46c0.02,3.3-0.6,5.95-1.85,7.95
				c-1.25,2-2.91,3.34-4.99,4.02l2.09,2.2l7.63,16.62l-4.76,0.02l-8.3-18.17L302.68,85l0.09,19.1l-4.11,0.02L298.47,62.75z
				 M302.67,82.02l3.28-0.02c2.08-0.01,3.72-0.71,4.92-2.11c1.2-1.4,1.79-3.53,1.78-6.4c-0.01-2.19-0.52-4-1.53-5.43
				c-1.01-1.43-2.5-2.14-4.47-2.13c-0.73,0-1.49,0.04-2.27,0.1c-0.79,0.06-1.38,0.16-1.78,0.28L302.67,82.02z"/>
			<path class="st1" d="M341.33,78.12l-2.05-6.67l-0.16-0.01l0.3,6.59l-1.2,26.48l-3.94-0.18l1.93-42.41l2.46,0.11l12.93,27.72
				l1.96,6.36l0.22,0.01l-0.32-6.29l1.2-26.42l3.94,0.18l-1.93,42.41l-2.52-0.11L341.33,78.12z"/>
			<path class="st1" d="M399.15,67.5c1.23-0.17,2.58-0.23,4.02-0.2c1.45,0.04,2.77,0.13,3.96,0.28c1.41,0.17,2.73,0.53,3.95,1.06
				c1.22,0.53,2.25,1.3,3.08,2.3c0.83,1,1.44,2.26,1.82,3.77c0.38,1.51,0.44,3.35,0.17,5.53c-0.4,3.28-1.35,5.83-2.84,7.65
				c-1.49,1.82-3.31,2.94-5.46,3.36l1.79,2.45l5.46,17.46l-4.73-0.58l-5.93-19.08l-3.97-1.39l-2.33,18.96l-4.07-0.5L399.15,67.5z
				 M400.87,87.14l3.26,0.4c2.07,0.25,3.78-0.24,5.15-1.47c1.37-1.24,2.22-3.28,2.57-6.12c0.27-2.17-0.01-4.03-0.83-5.58
				c-0.82-1.54-2.21-2.44-4.17-2.68c-0.73-0.09-1.48-0.15-2.27-0.19c-0.79-0.04-1.39-0.02-1.8,0.05L400.87,87.14z"/>
			<path class="st1" d="M430.31,92.24c1.19-6.98,3.12-12.1,5.79-15.37c2.67-3.26,6.1-4.53,10.31-3.81c2.27,0.39,4.11,1.22,5.52,2.49
				c1.41,1.27,2.46,2.91,3.13,4.92c0.67,2.01,1.02,4.37,1.04,7.08c0.02,2.71-0.25,5.69-0.8,8.95c-1.19,6.98-3.13,12.1-5.81,15.36
				c-2.69,3.26-6.13,4.53-10.34,3.81c-2.23-0.38-4.05-1.21-5.46-2.48c-1.41-1.27-2.46-2.91-3.16-4.93
				c-0.69-2.02-1.04-4.38-1.04-7.08C429.48,98.48,429.75,95.5,430.31,92.24z M434.57,92.97c-0.4,2.32-0.62,4.54-0.67,6.67
				c-0.05,2.13,0.12,4.04,0.5,5.72c0.38,1.68,1.01,3.08,1.89,4.2s2.06,1.81,3.54,2.06c2.7,0.46,4.99-0.6,6.87-3.19
				c1.88-2.59,3.33-6.8,4.32-12.65c0.39-2.28,0.61-4.48,0.66-6.61c0.05-2.13-0.12-4.05-0.49-5.75c-0.38-1.7-1.01-3.11-1.89-4.23
				c-0.88-1.12-2.08-1.81-3.59-2.07c-2.66-0.45-4.94,0.61-6.82,3.2C437.01,82.91,435.57,87.12,434.57,92.97z"/>
			<path class="st1" d="M470.12,99.42c1.54-6.92,3.72-11.93,6.55-15.06c2.83-3.12,6.32-4.22,10.49-3.29
				c2.24,0.5,4.04,1.42,5.39,2.76c1.35,1.34,2.31,3.03,2.88,5.07c0.57,2.04,0.8,4.42,0.69,7.13c-0.12,2.71-0.53,5.67-1.25,8.9
				c-1.54,6.92-3.73,11.93-6.57,15.05c-2.84,3.12-6.35,4.21-10.52,3.29c-2.21-0.49-3.99-1.41-5.33-2.75
				c-1.35-1.34-2.32-3.03-2.91-5.08c-0.59-2.05-0.82-4.42-0.69-7.13C468.98,105.61,469.4,102.65,470.12,99.42z M474.34,100.36
				c-0.51,2.29-0.84,4.5-1,6.63c-0.16,2.13-0.08,4.04,0.21,5.73c0.29,1.7,0.86,3.13,1.68,4.29c0.83,1.16,1.97,1.91,3.43,2.23
				c2.67,0.59,5.01-0.35,7.02-2.84s3.66-6.63,4.95-12.42c0.5-2.25,0.83-4.44,0.99-6.57c0.15-2.13,0.09-4.05-0.2-5.76
				s-0.85-3.16-1.68-4.32c-0.83-1.16-1.99-1.91-3.48-2.24c-2.64-0.59-4.96,0.36-6.97,2.85S475.63,94.57,474.34,100.36z"/>
			<path class="st1" d="M532.42,97.4l-9.09-2.44l-9.75,36.39l-3.97-1.06l9.75-36.39l-9.09-2.44l1.07-3.98l22.16,5.94L532.42,97.4z"
				/>
			<path class="st1" d="M537.21,132.28c0.51,0.7,1.29,1.46,2.36,2.27c1.07,0.81,2.36,1.46,3.9,1.93c1.95,0.61,3.7,0.58,5.24-0.08
				c1.54-0.66,2.67-2.12,3.37-4.36c0.46-1.48,0.52-2.88,0.16-4.2c-0.35-1.32-0.91-2.61-1.66-3.86c-0.75-1.26-1.59-2.52-2.52-3.79
				c-0.92-1.27-1.74-2.61-2.45-4.01c-0.71-1.41-1.19-2.92-1.45-4.55c-0.26-1.62-0.08-3.42,0.54-5.4c1-3.19,2.61-5.28,4.85-6.27
				c2.24-0.99,4.77-1.05,7.59-0.17c1.74,0.54,3.24,1.2,4.49,1.96c1.25,0.77,2.21,1.55,2.88,2.34l-2.43,3.37
				c-0.5-0.61-1.28-1.27-2.34-1.98c-1.06-0.71-2.36-1.3-3.89-1.78c-1.88-0.59-3.43-0.52-4.65,0.21c-1.22,0.72-2.07,1.85-2.54,3.37
				c-0.42,1.33-0.43,2.62-0.06,3.86s0.95,2.48,1.71,3.72s1.6,2.51,2.51,3.82c0.91,1.31,1.71,2.69,2.4,4.16s1.16,3.03,1.4,4.69
				c0.25,1.66,0.06,3.48-0.55,5.46c-1.04,3.34-2.77,5.68-5.17,7.02c-2.41,1.34-5.26,1.49-8.57,0.45c-2.09-0.65-3.74-1.4-4.95-2.23
				s-2.13-1.64-2.77-2.43L537.21,132.28z"/>
		</g>
	</g>
	<g>
		<g>
			<path class="st0" d="M595.51,415.01c-53.5,21.9-283.52,102.51-552.32-3.59l24.7-71.69c256.4,84.32,417.87,28.03,501.68,0.69
				L595.51,415.01z"/>
			<g>
				<path class="st0" d="M43.28,378.72l18.18-52.76l2.01,0.66c10.13,3.33,20.23,6.45,30.29,9.41l5.31-15.4l-67.85-27.85l-2.79,40.4
					l-21.7,30.54L43.28,378.72z"/>
				<path class="st0" d="M575.99,326.05l18.53,53.27L634,363.11l-21.7-30.54l-2.79-40.4l-67.85,27.85l5.32,15.42
					c7.72-2.44,14.99-4.82,21.79-7.04L575.99,326.05z"/>
			</g>
		</g>
		<g>
			<path id="SVGID_x5F_1_x5F_" class="st2" d="M63.71,391.21c295.21,105.13,511.84,0,511.84,0"/>
			<text>			<textPath  xlink:href="#SVGID_x5F_1_x5F_" startOffset="0.012%">
<tspan  class="st1" style="font-family:'GrafolitaScript-Medium'; font-size:50.276px;">Deep Roots and Proud of it</tspan>			</textPath>
</text>
		</g>
	</g>
	<g>
		<text transform="matrix(0.9169 0 0 1 97.9292 254.9721)" class="st1 st3 st4 st5">PREMIUM</text>
		<text transform="matrix(0.9169 0 0 1 423.7939 254.9721)" class="st1 st3 st4 st5">QUALITY</text>
	</g>
	<path class="st1" d="M377.88,222.29H266.62c-9.21,0-16.71,10.1-16.71,22.52v9.77l0.07,0c-0.01,0.08-0.03,0.14-0.03,0.22v23.23
		c0,0.78,0.47,1.42,1.05,1.42h1.89c0.58,0,1.05-0.64,1.05-1.42v-23.23c0-0.07-0.02-0.14-0.03-0.21l3.92,0.02v23.84
		c0,0.55,0.33,1,0.74,1h0.51c0.41,0,0.74-0.45,0.74-1v-23.83l3.78,0.02v23.82c0,0.55,0.33,1,0.74,1h0.51c0.41,0,0.74-0.45,0.74-1
		v-23.81l3.78,0.02v23.79c0,0.55,0.33,1,0.74,1h0.51c0.41,0,0.74-0.45,0.74-1v-23.78l3.78,0.02v23.77c0,0.55,0.33,1,0.74,1h0.51
		c0.41,0,0.74-0.45,0.74-1V254.7l3.78,0.02v23.74c0,0.55,0.33,1,0.74,1h0.51c0.41,0,0.74-0.45,0.74-1v-23.74l3.78,0.02v23.72
		c0,0.55,0.33,1,0.74,1h0.51c0.41,0,0.74-0.45,0.74-1v-23.71l3.78,0.02v23.7c0,0.55,0.33,1,0.74,1h0.51c0.41,0,0.74-0.45,0.74-1
		v-23.69l3.78,0.02v23.67c0,0.55,0.33,1,0.74,1h0.51c0.41,0,0.74-0.45,0.74-1V254.8l3.78,0.02v23.65c0,0.55,0.33,1,0.74,1h0.51
		c0.41,0,0.74-0.45,0.74-1v-23.64l3.78,0.02v23.62c0,0.55,0.33,1,0.74,1h0.51c0.41,0,0.74-0.45,0.74-1v-23.62l3.78,0.02v23.6
		c0,0.55,0.33,1,0.74,1h0.51c0.41,0,0.74-0.45,0.74-1v-23.59l3.78,0.02v23.58c0,0.55,0.33,1,0.74,1h0.51c0.41,0,0.74-0.45,0.74-1
		v-23.57l3.78,0.02v23.55c0,0.55,0.33,1,0.74,1h0.51c0.41,0,0.74-0.45,0.74-1v-23.54l3.78,0.02v23.53c0,0.55,0.33,1,0.74,1h0.51
		c0.41,0,0.74-0.45,0.74-1v-23.52l3.78,0.02v23.5c0,0.55,0.33,1,0.74,1h0.51c0.41,0,0.74-0.45,0.74-1v-23.49l3.78,0.02v23.48
		c0,0.55,0.33,1,0.74,1h0.51c0.41,0,0.74-0.45,0.74-1v-23.47l3.78,0.02v23.45c0,0.55,0.33,1,0.74,1h0.51c0.41,0,0.74-0.45,0.74-1
		v-23.45l3.78,0.02v23.43c0,0.55,0.33,1,0.74,1h0.51c0.41,0,0.74-0.45,0.74-1v-23.42l3.78,0.02v23.41c0,0.55,0.33,1,0.74,1h0.51
		c0.41,0,0.74-0.45,0.74-1v-23.4l3.78,0.02v23.38c0,0.55,0.33,1,0.74,1h0.51c0.41,0,0.74-0.45,0.74-1v-23.37l3.78,0.02v23.36
		c0,0.55,0.33,1,0.74,1h0.51c0.41,0,0.74-0.45,0.74-1v-23.35l3.78,0.02v23.33c0,0.55,0.33,1,0.74,1h0.51c0.41,0,0.74-0.45,0.74-1
		v-23.33l3.78,0.02v23.31c0,0.55,0.33,1,0.74,1h0.51c0.41,0,0.74-0.45,0.74-1v-23.3l3.87,0.02v22.87c0,0.78,0.47,1.42,1.05,1.42
		h1.89c0.58,0,1.05-0.64,1.05-1.42v-22.85h0.01v-10.38C394.59,232.4,387.09,222.29,377.88,222.29z"/>
	<g>
		<path class="st1" d="M225.92,179.08c1.84,1.56,4.49,1.2,5.92-0.81c3.2-4.49,8.06-7.06,13.35-7.06c4.63,0,8.99,2.04,12.15,5.59
			c-2.03,3.07-3.24,6.82-3.24,10.89c0,10.29,7.65,18.64,17.09,18.64c2.63,0,5.12-0.67,7.34-1.83l-0.02,0.01l33.2,36.42
			c-0.06,0.04-0.12,0.06-0.17,0.12l-54.07,68.43c-1.5,1.64-1.52,4.3-0.04,5.92l0.59,0.65c1.48,1.62,3.93,1.6,5.43-0.04l59.61-62.07
			c0.09-0.1,0.16-0.2,0.22-0.3l57.65,63.26c1.35,1.75,3.76,1.98,5.37,0.52l0.64-0.59c1.61-1.47,1.82-4.1,0.47-5.86l-50.77-69.31
			c0,0-0.9-1.24-2.48-2.78l32.03-34.93c2.47,1.51,5.32,2.38,8.35,2.38c9.44,0,17.09-8.34,17.09-18.64
			c0-10.29-7.65-18.64-17.09-18.64s-17.09,8.34-17.09,18.64c0,3.63,0.97,7.01,2.61,9.88l-32.97,35.96
			c-0.12,0.13-0.21,0.27-0.31,0.41c-2.35-0.93-5.01-1.41-7.92-0.9l-33.36-35.22l-0.02,0.02c1.74-2.92,2.77-6.4,2.77-10.15
			c0-10.29-7.65-18.64-17.09-18.64c-2.64,0-5.13,0.67-7.37,1.84c-4.77-5.65-11.49-8.89-18.63-8.89c-7.91,0-15.21,3.87-20.01,10.62
			C223.75,174.63,224.08,177.52,225.92,179.08z M374.57,176.19c5.83,0,10.55,5.15,10.55,11.51s-4.72,11.51-10.55,11.51
			c-5.83,0-10.55-5.15-10.55-11.51S368.74,176.19,374.57,176.19z M281.74,187.7c0,6.36-4.72,11.51-10.55,11.51
			c-5.83,0-10.55-5.15-10.55-11.51s4.72-11.51,10.55-11.51C277.02,176.19,281.74,181.34,281.74,187.7z"/>
	</g>
</g>
</svg>
