<?xml version="1.0" encoding="utf-8"?>
<!-- Generator: Adobe Illustrator 23.0.4, SVG Export Plug-In . SVG Version: 6.00 Build 0)  -->
<svg version="1.1" xmlns="http://www.w3.org/2000/svg" xmlns:xlink="http://www.w3.org/1999/xlink" x="0px" y="0px"
	 viewBox="0 0 800 800" style="enable-background:new 0 0 800 800;" xml:space="preserve">
<style type="text/css">
	.st0{display:none;}
	.st1{fill:#FFFFFF;}
	.st2{display:inline;fill:#FFFFFF;}
	.st3{display:inline;}
</style>
<g id="Dryer" class="st0">
	<path class="st1" d="M1452.59,518.66c0.2,0,0.4,0,0.6,0c0,23.56-1.46,47.22,0.33,70.64c2.91,38.07,28.66,61.83,62.9,60.65
		c33.68-1.16,57.49-27.39,58.01-65.22c0.54-39,0.98-78.03-0.21-117c-0.57-18.67,4.02-30.09,21.12-41.18
		c67.78-43.97,87.03-132.95,46.08-201.96c-40.21-67.77-128.28-95.57-197.07-57.2c-32.98,18.4-67.15,26.83-102.74,34.23
		c-34.96,7.27-69.67,15.91-104.83,21.97c-17.62,3.04-22.32,11.31-21.93,27.89c0.9,38.17,1.19,76.41-0.09,114.56
		c-0.65,19.27,5.87,27.26,25.2,29.88c55.48,7.52,110.74,16.73,166.06,25.44c35.02,5.51,46.56,18.92,46.57,53.42
		C1452.59,489.41,1452.59,504.04,1452.59,518.66z"/>
	<path class="st2" d="M1170.44,357.44c-1.42-2.27-2.83-4.54-4.25-6.81c-34.33,30.15-67.83,23.92-101.51,2.27
		c-5.11-3.29-12.87-5.14-18.71-4.02c-10.14,1.94-19.74,6.72-29.56,10.32c0.79,2.78,1.58,5.56,2.37,8.35
		c13.16,0,26.9-2.41,39.31,0.64c13.88,3.42,26.04,13.4,39.84,17.64c24.42,7.49,46.49-0.83,66.2-15.37
		C1167.56,367.91,1168.4,361.87,1170.44,357.44z"/>
	<path class="st2" d="M1169.92,302.19c-1.57-2.02-3.14-4.04-4.71-6.06c-33.99,30.95-66.67,22.25-100.97,3
		c-9.55-5.36-24.64-1.94-36.98-0.6c-3.83,0.41-6.97,7.21-13.31,14.31c18.41,0,31.38-2.16,43.2,0.6
		c12.25,2.86,23.11,11.18,35.06,15.89c26.89,10.6,50.7,1.93,72.5-14.01C1167.94,312.97,1168.26,306.66,1169.92,302.19z"/>
	<path class="st2" d="M1170.26,248.38c-1.15-2.79-2.3-5.58-3.44-8.37c-36.33,34.29-70.98,23.57-105.55,2.59
		c-3.83-2.33-9.74-3.35-14.06-2.33c-10.41,2.47-20.45,6.51-30.64,9.92c0.29,4.57,0.58,9.15,0.87,13.72
		c32.17-20.07,53.32,3.75,78.36,12.14c26.58,8.91,49.18-0.68,70.06-16.13C1168.65,257.87,1168.85,252.32,1170.26,248.38z"/>
	<path class="st3" d="M1452.59,518.66c0-14.63,0-29.25,0-43.88c0-34.5-11.55-47.91-46.57-53.42
		c-55.32-8.71-110.57-17.92-166.06-25.44c-19.34-2.62-25.85-10.62-25.2-29.88c1.28-38.15,1-76.39,0.09-114.56
		c-0.39-16.58,4.31-24.86,21.93-27.89c35.16-6.06,69.87-14.7,104.83-21.97c35.58-7.4,69.76-15.83,102.74-34.23
		c68.79-38.37,156.86-10.56,197.07,57.2c40.95,69,21.69,157.98-46.08,201.96c-17.1,11.1-21.7,22.52-21.12,41.18
		c1.19,38.97,0.75,78,0.21,117c-0.52,37.83-24.33,64.06-58.01,65.22c-34.24,1.18-59.99-22.58-62.9-60.65
		c-1.79-23.42-0.33-47.09-0.33-70.64C1452.99,518.67,1452.79,518.67,1452.59,518.66z M1511.7,166.98
		c-74.9-0.16-135.14,58.96-135.82,133.3c-0.69,75.45,59.82,137.19,134.65,137.39c74.62,0.2,136.85-61.97,136.34-136.21
		C1646.37,227.51,1585.69,167.14,1511.7,166.98z M1233.51,241.05c0,46.56,0,90.89,0,136.86c53.32,8.35,105.63,16.53,154.12,24.12
		c-9.71-32.67-25.52-63.7-26.45-95.17c-0.94-31.9,12.83-64.23,20.29-96.93C1334.8,219.75,1284.95,230.23,1233.51,241.05z
		 M1470.52,450.19c0,46.62-0.3,91.96,0.11,137.29c0.24,26.77,18.61,46.38,42.59,46.91c22.7,0.5,44.19-17.64,44.98-42.55
		c1.51-47.71,0.44-95.5,0.44-143.77c-15.4,2.14-29,5.28-42.66,5.59C1501.69,453.99,1487.33,451.6,1470.52,450.19z"/>
	<path class="st3" d="M1170.44,357.44c-2.04,4.42-2.88,10.47-6.32,13c-19.71,14.54-41.78,22.86-66.2,15.37
		c-13.8-4.23-25.96-14.22-39.84-17.64c-12.4-3.05-26.15-0.64-39.31-0.64c-0.79-2.78-1.58-5.56-2.37-8.35
		c9.82-3.59,19.42-8.37,29.56-10.32c5.84-1.12,13.6,0.73,18.71,4.02c33.68,21.65,67.18,27.88,101.51-2.27
		C1167.61,352.9,1169.03,355.17,1170.44,357.44z"/>
	<path class="st3" d="M1169.92,302.19c-1.66,4.47-1.98,10.78-5.2,13.13c-21.8,15.94-45.61,24.61-72.5,14.01
		c-11.95-4.71-22.81-13.03-35.06-15.89c-11.82-2.76-24.79-0.6-43.2-0.6c6.33-7.1,9.48-13.9,13.31-14.31
		c12.34-1.33,27.43-4.76,36.98,0.6c34.3,19.25,66.97,27.95,100.97-3C1166.78,298.15,1168.35,300.17,1169.92,302.19z"/>
	<path class="st3" d="M1170.26,248.38c-1.4,3.94-1.61,9.49-4.4,11.55c-20.88,15.45-43.48,25.05-70.06,16.13
		c-25.04-8.4-46.19-32.22-78.36-12.14c-0.29-4.57-0.58-9.15-0.87-13.72c10.19-3.41,20.22-7.45,30.64-9.92
		c4.32-1.02,10.23,0,14.06,2.33c34.57,20.98,69.22,31.7,105.55-2.59C1167.96,242.81,1169.11,245.59,1170.26,248.38z"/>
	<path class="st3" d="M1512.76,229.44c40.55,0.36,71.85,32.7,71.35,73.73c-0.48,39.86-33.96,72.92-73.56,72.65
		c-39.23-0.27-73.01-34.3-73.05-73.61C1437.45,261.15,1470.64,229.06,1512.76,229.44z M1509.88,359.08
		c31.42,0.64,57.63-24.33,58.48-55.71c0.83-30.87-24.79-57.57-55.96-58.31c-31.63-0.74-57.47,24.04-58.07,55.69
		C1453.73,332.7,1478.24,358.43,1509.88,359.08z"/>
</g>
<g id="Cream" class="st0">
	<path class="st3" d="M2116.54,381.76c0-7.47-0.21-14.09,0.04-20.7c0.81-21.06,6-25.64,27.95-28.12c4.9-0.55,11.41-4.36,13.52-8.42
		c10.28-19.78,27.29-26.51,49.09-27.67c30.71-1.62,61.37-4.37,91.99-7.23c8.02-0.75,15.99-3.23,23.68-5.77
		c30.22-9.96,34.68-18.41,24.38-48.68c23.2-7.81,46.53-6.89,69.51-1.08c46.13,11.68,74.76,42.83,94.24,82.49
		c5.67,11.54,11.11,18.32,25.91,17.06c16.27-1.39,23.97,8.03,23.82,23.46c-0.08,8.37-0.01,16.75-0.01,24.86
		c25.17,4.95,28.83,8.97,28.31,32.82c-1.26,59.01-15.35,114.5-50.47,163.94c-27.95,39.34-63.73,62.42-116.57,60.09
		c-58.4-2.58-117.06-1.61-175.55-0.23c-38.69,0.91-68.43-14.2-92.12-41.25c-48.43-55.3-65.83-120.84-65.23-191.63
		C2089.14,391.22,2094.75,387.02,2116.54,381.76z M2546.71,386.14c4.95-41.35,4.92-41.38-32.42-41.38c-117.17,0-234.33,0-351.49,0
		c-35.06,0-35.07,0-32.72,34.29c0.07,1.08,0.85,2.11,1.64,3.95c19.2,0.88,38.81,1.78,58.41,2.68c-0.01,2.45-0.02,4.91-0.03,7.36
		c-5.55,0.81-11.1,2.23-16.66,2.32c-18.89,0.3-37.8,0.35-56.69,0.05c-10.07-0.16-15.36,3.38-15.31,13.59
		c0.34,67.7,16.62,130.5,63.73,182.97c21.01,23.41,47.77,35.69,81.4,35.1c61.71-1.09,123.47-0.89,185.18-0.07
		c31.94,0.42,57.46-10.86,78.43-33.01c47.42-50.08,63.23-110.94,66.46-176.5c0.88-17.87-5.57-22.49-23.5-22.35
		c-94.48,0.73-188.97,0.4-283.46,0.22c-6.59-0.01-13.17-1.72-19.76-2.63c0.16-2.2,0.33-4.39,0.5-6.59
		C2348.94,386.14,2447.44,386.14,2546.71,386.14z M2365.67,243.71c2.45,26.43-4.78,38.33-30.74,48.53c-9.23,3.62-19,7.1-28.81,8.12
		c-32.41,3.36-64.92,5.9-97.44,8.09c-22.9,1.54-33.41,7.85-36.76,23.86c110.25,0,220.54,0,331.13,0
		C2484.85,271.64,2428.2,235.44,2365.67,243.71z"/>
</g>
<g id="Makeup">
	<g>
		<path class="st1" d="M250.15,468.2c20.75-53.45,17.52-107.54,6.83-161.73c-1.26-6.38-8.41-11.59-12.83-17.34
			c-1.75,6.97-5.9,14.31-4.87,20.84c6.38,40.5,10.57,80.92,1.06,121.41c-5.13,21.85-13.82,41.92-33.73,55.84
			c-0.78-2.38-1.57-3.53-1.42-4.53c0.66-4.41,1.63-8.77,2.41-13.16c7.63-43.12-2.22-83.53-20.03-122.38
			c-1.83-4-9.31-5.41-14.17-8.02c-0.73,5.44-3.05,11.28-1.84,16.25c2.39,9.82,7.51,18.95,10.15,28.73
			c11.93,44.2,17.89,87.7-14.93,126.99c-2.88,3.44-0.56,11.22-0.66,16.99c5.04-1.35,10.9-1.46,14.99-4.22
			c72.9-49.21,148.14-60.15,228.65-17.94c30.33,15.9,62.46,28.65,94.55,40.78c27.2,10.28,56.01,15.45,83.56,1.2
			c40.33-20.87,61.94-57.39,77.12-98.28c1.48-3.99-2.17-9.89-3.43-14.9c-4.67,3.08-11.09,5.1-13.71,9.43
			c-10.5,17.38-18.04,36.77-29.92,53.04c-32.5,44.48-75.32,51.97-125.03,23.23c48.24-20.61,77.37-59.68,101.14-103.26
			c11.84-21.71,21.21-44.82,30.73-67.69c1.59-3.81-1.77-9.68-2.85-14.6c-4.8,2.65-10.4,4.5-14.16,8.21
			c-2.89,2.86-2.93,8.37-5.15,12.17c-21.07,36.13-40.56,73.37-64.19,107.76c-15.6,22.7-38.88,39.34-68.05,41.73
			c-11.28,0.93-22.98-3.38-34.49-5.3c0.24-1.88,0.47-3.75,0.71-5.63c33.54-13.33,59.04-36.85,74.56-68.19
			c17.95-36.26,31.63-74.67,46.5-112.4c3.69-9.37,5.68-19.65,6.71-29.7c0.38-3.72-4.26-7.95-6.61-11.94
			c-3.74,2.52-8.89,4.25-10.87,7.77c-2.7,4.8-2.93,10.97-4.33,16.53c-11.73,46.51-25.41,92.77-55.16,131.03
			c-14.35,18.46-34.34,33.45-54.15,46.41c-12.52,8.19-29.37,11.69-44.7,2.35c0.24-1.47,0.11-2.37,0.48-2.69
			c67.36-57.8,85.25-136.01,89.87-219.4c0.3-5.37-5.43-11.08-8.35-16.63c-3.39,4.99-8.88,9.63-9.77,15.03
			c-2.89,17.56-3.06,35.57-6.15,53.08c-10.15,57.47-28.62,110.94-75.19,150.44c-13.2,11.2-26.41,13.58-42.05,4.3
			c47.12-59.49,56.77-127.98,48.77-200.46c-0.59-5.35-6.85-10.07-10.48-15.08c-2.72,5.45-7.58,10.81-7.8,16.36
			c-1.05,26,0.88,52.2-1.45,78.05c-3.54,39.36-15.97,76.17-43.09,106.06c-7.26,8-18.16,12.71-27.38,18.93
			c-1.3-1.48-2.61-2.97-3.91-4.45c33.8-54.45,33.59-113.75,24.92-173.92c-1-6.91-8.13-12.94-12.42-19.38
			c-1.98,7.63-5.68,15.27-5.62,22.89c0.2,26.7,3.91,53.53,2.16,80.04C298.5,408.28,287.93,445.25,250.15,468.2z"/>
		<path class="st1" d="M456.93,573.58c-4.04-3.4-7.3-7.21-11.43-9.41c-15.68-8.37-31.13-17.49-47.58-24.04
			c-73.37-29.24-144.2-24.98-210.78,19.38c-5.06,3.37-6.25,12.54-9.24,19.01c6.49-1.4,14.15-1.05,19.3-4.47
			c52.01-34.56,108.25-43.5,167.48-25.35c25.21,7.72,48.48,21.67,72.83,32.34c4.16,1.82,9.41,2.19,13.95,1.61
			C453.27,582.42,454.52,577.79,456.93,573.58z"/>
		<path d="M250.15,468.2c37.78-22.95,48.35-59.91,50.96-99.36c1.75-26.51-1.96-53.34-2.16-80.04c-0.06-7.61,3.64-15.26,5.62-22.89
			c4.29,6.44,11.42,12.47,12.42,19.38c8.67,60.17,8.88,119.46-24.92,173.92c1.3,1.48,2.61,2.97,3.91,4.45
			c9.23-6.22,20.12-10.93,27.38-18.93c27.12-29.89,39.55-66.7,43.09-106.06c2.33-25.84,0.4-52.05,1.45-78.05
			c0.22-5.55,5.08-10.91,7.8-16.36c3.62,5.01,9.89,9.73,10.48,15.08c8,72.48-1.66,140.97-48.77,200.46
			c15.64,9.28,28.85,6.9,42.05-4.3c46.57-39.51,65.04-92.97,75.19-150.44c3.09-17.51,3.26-35.53,6.15-53.08
			c0.89-5.4,6.38-10.04,9.77-15.03c2.92,5.55,8.65,11.25,8.35,16.63c-4.61,83.4-22.5,161.61-89.87,219.4
			c-0.37,0.32-0.24,1.22-0.48,2.69c15.33,9.35,32.18,5.84,44.7-2.35c19.8-12.95,39.8-27.95,54.15-46.41
			c29.75-38.26,43.43-84.52,55.16-131.03c1.4-5.56,1.62-11.73,4.33-16.53c1.98-3.52,7.13-5.24,10.87-7.77
			c2.35,4,6.99,8.22,6.61,11.94c-1.03,10.04-3.02,20.33-6.71,29.7c-14.87,37.74-28.55,76.14-46.5,112.4
			c-15.52,31.33-41.01,54.85-74.56,68.19c-0.24,1.88-0.47,3.75-0.71,5.63c11.51,1.92,23.22,6.23,34.49,5.3
			c29.16-2.39,52.45-19.03,68.05-41.73c23.63-34.39,43.11-71.63,64.19-107.76c2.22-3.8,2.26-9.32,5.15-12.17
			c3.75-3.71,9.35-5.56,14.16-8.21c1.07,4.92,4.44,10.79,2.85,14.6c-9.52,22.88-18.89,45.99-30.73,67.69
			c-23.78,43.59-52.9,82.66-101.14,103.26c49.71,28.73,92.53,21.25,125.03-23.23c11.89-16.27,19.42-35.66,29.92-53.04
			c2.61-4.32,9.03-6.35,13.71-9.43c1.27,5.01,4.92,10.91,3.43,14.9c-15.17,40.89-36.79,77.41-77.12,98.28
			c-27.54,14.25-56.36,9.08-83.56-1.2c-32.09-12.13-64.22-24.89-94.55-40.78c-80.52-42.2-155.76-31.27-228.65,17.94
			c-4.08,2.76-9.95,2.87-14.99,4.22c0.1-5.77-2.22-13.55,0.66-16.99c32.81-39.28,26.85-82.79,14.93-126.99
			c-2.64-9.78-7.76-18.91-10.15-28.73c-1.21-4.97,1.11-10.8,1.84-16.25c4.86,2.61,12.34,4.02,14.17,8.02
			c17.81,38.85,27.66,79.26,20.03,122.38c-0.78,4.39-1.75,8.75-2.41,13.16c-0.15,1,0.64,2.15,1.42,4.53
			c19.91-13.92,28.6-33.99,33.73-55.84c9.5-40.49,5.32-80.91-1.06-121.41c-1.03-6.53,3.12-13.87,4.87-20.84
			c4.42,5.75,11.57,10.97,12.83,17.34C267.67,360.65,270.9,414.75,250.15,468.2z"/>
		<path d="M456.93,573.58c-2.42,4.21-3.67,8.83-5.48,9.06c-4.54,0.58-9.79,0.21-13.95-1.61c-24.35-10.67-47.62-24.61-72.83-32.34
			c-59.23-18.15-115.47-9.21-167.48,25.35c-5.15,3.42-12.8,3.07-19.3,4.47c2.99-6.47,4.18-15.64,9.24-19.01
			c66.58-44.36,137.41-48.62,210.78-19.38c16.45,6.55,31.9,15.67,47.58,24.04C449.63,566.37,452.89,570.19,456.93,573.58z"/>
	</g>
</g>
<g id="Nail" class="st0">
	<g class="st3">
		<path class="st1" d="M-358.95,579.85c1.93,0.14,3.84,0.28,5.77,0.42c0.79-4.49,2.26-8.98,2.26-13.47
			c0.12-71.59,0.9-143.21-0.57-214.78c-0.35-16.95-4.01-37.13-13.87-49.85c-17.63-22.75-23.93-46.07-24.67-74.05
			c-0.73-27.61-23.76-46.62-51.4-47.3c-20.66-0.51-41.35-0.5-62.01,0.02c-25.69,0.65-46.52,17.96-50.9,43.22
			c-2.13,12.29-0.64,25.17-2.23,37.6c-0.81,6.31-3.44,13.43-7.6,18.08c-18.99,21.2-29.39,45.26-29.31,74
			c0.22,70.59,0.02,141.18,0.15,211.77c0.01,4.95,1.4,9.88,2.14,14.83c1.66,0.03,3.31,0.06,4.96,0.09
			c0.82-5.38,2.33-10.75,2.34-16.13c0.16-70.08-0.03-140.17,0.18-210.26c0.08-24.2,7.11-45.88,27.46-66.13
			c0,31.02-0.19,58.52,0.05,86.02c0.27,30.69,8.22,58.84,29.41,81.98c25.35,27.67,61.75,32.66,93.16,12.57
			c27.02-17.3,40.47-43.67,43.24-74.42c2.61-29.04,1.55-58.39,2.18-87.61c0.1-5.09,0.5-10.18,0.89-17.68
			c21.7,21.56,26.7,45.74,26.75,71.56c0.1,67.57,0,135.12,0.1,202.69C-360.46,568.62-359.48,574.23-358.95,579.85z"/>
		<path d="M-358.95,579.85c-0.53-5.61-1.51-11.24-1.52-16.85c-0.1-67.57,0-135.13-0.1-202.69c-0.04-25.82-5.04-49.99-26.75-71.56
			c-0.39,7.5-0.79,12.59-0.89,17.68c-0.62,29.22,0.44,58.58-2.18,87.61c-2.77,30.75-16.22,57.13-43.24,74.42
			c-31.4,20.09-67.81,15.1-93.16-12.57c-21.2-23.14-29.14-51.3-29.41-81.98c-0.24-27.5-0.05-55-0.05-86.02
			c-20.34,20.26-27.38,41.94-27.46,66.13c-0.22,70.08-0.03,140.17-0.18,210.26c-0.01,5.38-1.53,10.76-2.34,16.13
			c-1.66-0.03-3.31-0.06-4.96-0.09c-0.75-4.95-2.13-9.88-2.14-14.83c-0.13-70.59,0.07-141.18-0.15-211.77
			c-0.09-28.73,10.31-52.8,29.31-74c4.17-4.65,6.79-11.78,7.6-18.08c1.59-12.43,0.1-25.31,2.23-37.6
			c4.37-25.25,25.21-42.57,50.9-43.22c20.66-0.52,41.35-0.53,62.01-0.02c27.64,0.69,50.67,19.69,51.4,47.3
			c0.74,27.98,7.04,51.3,24.67,74.05c9.86,12.71,13.52,32.9,13.87,49.85c1.48,71.57,0.7,143.18,0.57,214.78
			c-0.01,4.5-1.48,8.98-2.26,13.47C-355.11,580.13-357.03,579.99-358.95,579.85z M-398.7,309.85c-0.03,0-0.05,0-0.08,0
			c0-25.18,0.43-50.38-0.12-75.55c-0.56-25.68-18.38-43.32-44.11-43.96c-19.63-0.49-39.29-0.49-58.92,0.03
			c-22.96,0.61-42.57,16.57-42.94,38.45c-0.95,55.37-1.87,110.86,1.01,166.11c2.15,41.42,34.3,73.62,67.98,75.21
			c35.51,1.67,64.76-24.96,74.25-68.39c2.02-9.25,2.63-18.93,2.81-28.43C-398.43,352.17-398.7,331.01-398.7,309.85z"/>
		<path class="st1" d="M-398.7,309.85c0,21.16,0.28,42.31-0.13,63.46c-0.18,9.5-0.79,19.19-2.81,28.43
			c-9.49,43.43-38.74,70.07-74.25,68.39c-33.69-1.59-65.83-33.79-67.98-75.21c-2.87-55.24-1.95-110.75-1.01-166.11
			c0.37-21.89,19.98-37.84,42.94-38.45c19.63-0.52,39.29-0.52,58.92-0.03c25.73,0.65,43.55,18.28,44.11,43.96
			c0.55,25.17,0.12,50.37,0.12,75.55C-398.76,309.85-398.74,309.85-398.7,309.85z M-433.37,300.87c-11.18,14.7-9.28,99.44,0,107.91
			C-433.37,371.94-433.37,336.4-433.37,300.87z M-433.06,278.47c0-15.07,0-26.08,0-39.02C-443.38,249.55-443.8,263.89-433.06,278.47
			z"/>
		<path d="M-433.37,300.87c0,35.54,0,71.07,0,107.91C-442.65,400.32-444.55,315.57-433.37,300.87z"/>
		<path d="M-433.06,278.47c-10.74-14.57-10.32-28.92,0-39.02C-433.06,252.38-433.06,263.4-433.06,278.47z"/>
	</g>
</g>
</svg>
